<svg xmlns="http://www.w3.org/2000/svg" xmlns:xlink="http://www.w3.org/1999/xlink" width="500" zoomAndPan="magnify" viewBox="0 0 375 374.999991" height="500" preserveAspectRatio="xMidYMid meet" version="1.0"><defs><clipPath id="id1"><path d="M 235 28.828125 L 269 28.828125 L 269 341 L 235 341 Z M 235 28.828125 " clip-rule="nonzero"/></clipPath><clipPath id="id2"><path d="M 26.207031 335 L 348.707031 335 L 348.707031 346.078125 L 26.207031 346.078125 Z M 26.207031 335 " clip-rule="nonzero"/></clipPath></defs><path fill="#fac536" d="M 42.335938 136.382812 L 74.59375 136.382812 L 74.59375 340.671875 L 42.335938 340.671875 Z M 42.335938 136.382812 " fill-opacity="1" fill-rule="nonzero"/><g clip-path="url(#id1)"><path fill="#fac536" d="M 235.878906 28.859375 L 268.132812 28.859375 L 268.132812 340.671875 L 235.878906 340.671875 Z M 235.878906 28.859375 " fill-opacity="1" fill-rule="nonzero"/></g><path fill="#fac536" d="M 300.390625 243.902344 L 332.648438 243.902344 L 332.648438 340.671875 L 300.390625 340.671875 Z M 300.390625 243.902344 " fill-opacity="1" fill-rule="nonzero"/><path fill="#fac536" d="M 106.851562 190.144531 L 139.105469 190.144531 L 139.105469 340.671875 L 106.851562 340.671875 Z M 106.851562 190.144531 " fill-opacity="1" fill-rule="nonzero"/><path fill="#fac536" d="M 171.363281 87.996094 L 203.621094 87.996094 L 203.621094 340.671875 L 171.363281 340.671875 Z M 171.363281 87.996094 " fill-opacity="1" fill-rule="nonzero"/><g clip-path="url(#id2)"><path fill="#332b38" d="M 343.398438 335.296875 L 31.585938 335.296875 C 31.230469 335.296875 30.882812 335.332031 30.535156 335.402344 C 30.191406 335.46875 29.855469 335.570312 29.527344 335.707031 C 29.203125 335.839844 28.890625 336.007812 28.597656 336.203125 C 28.304688 336.398438 28.03125 336.621094 27.785156 336.871094 C 27.535156 337.121094 27.3125 337.394531 27.113281 337.6875 C 26.917969 337.980469 26.753906 338.289062 26.617188 338.617188 C 26.484375 338.941406 26.382812 339.277344 26.3125 339.625 C 26.242188 339.972656 26.207031 340.320312 26.207031 340.671875 C 26.207031 341.027344 26.242188 341.375 26.3125 341.722656 C 26.382812 342.070312 26.484375 342.40625 26.617188 342.730469 C 26.753906 343.058594 26.917969 343.367188 27.113281 343.660156 C 27.3125 343.953125 27.535156 344.226562 27.785156 344.476562 C 28.03125 344.722656 28.304688 344.949219 28.597656 345.144531 C 28.890625 345.339844 29.203125 345.503906 29.527344 345.640625 C 29.855469 345.773438 30.191406 345.878906 30.535156 345.945312 C 30.882812 346.015625 31.230469 346.050781 31.585938 346.050781 L 343.398438 346.050781 C 343.753906 346.050781 344.101562 346.015625 344.449219 345.945312 C 344.792969 345.878906 345.132812 345.773438 345.457031 345.640625 C 345.785156 345.503906 346.09375 345.339844 346.386719 345.144531 C 346.679688 344.949219 346.953125 344.722656 347.203125 344.476562 C 347.449219 344.226562 347.671875 343.953125 347.871094 343.660156 C 348.066406 343.367188 348.230469 343.058594 348.367188 342.730469 C 348.5 342.40625 348.605469 342.070312 348.671875 341.722656 C 348.742188 341.375 348.777344 341.027344 348.777344 340.671875 C 348.777344 340.320312 348.742188 339.972656 348.671875 339.625 C 348.605469 339.277344 348.5 338.941406 348.367188 338.617188 C 348.230469 338.289062 348.066406 337.980469 347.871094 337.6875 C 347.671875 337.394531 347.449219 337.121094 347.203125 336.871094 C 346.953125 336.621094 346.679688 336.398438 346.386719 336.203125 C 346.09375 336.007812 345.785156 335.839844 345.457031 335.707031 C 345.132812 335.570312 344.792969 335.46875 344.449219 335.402344 C 344.101562 335.332031 343.753906 335.296875 343.398438 335.296875 Z M 343.398438 335.296875 " fill-opacity="1" fill-rule="nonzero"/></g></svg>